<?xml version="1.0" encoding="UTF-8"?>
<svg id="Layer_2" data-name="Layer 2" xmlns="http://www.w3.org/2000/svg" viewBox="0 0 34.92 34.92">
  <defs>
    <style>
      .cls-1 {
        fill: #817b73;
      }
    </style>
  </defs>
  <g id="Layer_1-2" data-name="Layer 1">
    <g>
      <path class="cls-1" d="M11.86,11.56c3.74,0,7.47,0,11.21,0,.1,.1,.19,.2,.29,.29,0,3.74,0,7.47,0,11.21-.1,.1-.2,.19-.29,.29-3.74,0-7.47,0-11.21,0-.1-.1-.19-.2-.29-.29V11.85c.1-.1,.19-.19,.29-.29Z"/>
      <path class="cls-1" d="M11.56,11.85c-3.07,0-6.15-.07-9.22,.01C.59,11.91-.1,11.22,.01,9.5c.08-1.24-.04-2.5,.04-3.74C.25,2.46,2.46,.25,5.76,.05c1.24-.08,2.5,.05,3.74-.04,1.72-.11,2.42,.58,2.37,2.33-.08,3.07-.01,6.14,0,9.22-.1,.1-.2,.19-.29,.29Z"/>
      <path class="cls-1" d="M23.07,11.56c0-3.07,.07-6.15-.01-9.22-.05-1.75,.65-2.45,2.37-2.33,1.24,.08,2.5-.04,3.74,.04,3.3,.2,5.5,2.41,5.7,5.71,.08,1.24-.05,2.5,.04,3.74,.11,1.72-.58,2.42-2.33,2.37-3.07-.08-6.14-.01-9.22,0-.1-.1-.19-.2-.29-.29Z"/>
      <path class="cls-1" d="M11.85,23.36c0,3.07-.07,6.15,.01,9.22,.05,1.75-.65,2.45-2.37,2.33-1.24-.08-2.5,.04-3.74-.04-3.3-.2-5.5-2.41-5.7-5.71-.08-1.24,.05-2.5-.04-3.74-.11-1.72,.58-2.42,2.33-2.37,3.07,.08,6.14,.01,9.22,0,.1,.1,.19,.2,.29,.29Z"/>
      <path class="cls-1" d="M23.36,23.07c3.07,0,6.15,.07,9.22-.01,1.75-.05,2.45,.65,2.33,2.37-.08,1.24,.04,2.5-.04,3.74-.2,3.29-2.41,5.5-5.71,5.7-1.24,.08-2.5-.05-3.74,.04-1.72,.11-2.42-.58-2.37-2.33,.08-3.07,.01-6.14,0-9.22,.1-.1,.2-.19,.29-.29Z"/>
    </g>
  </g>
</svg>